<svg version="1.1" id="Layer_1" xmlns:v="https://vecta.io/nano"
    xmlns="http://www.w3.org/2000/svg" xmlns:xlink="http://www.w3.org/1999/xlink" x="0px" y="0px"
    viewBox="0 0 28 29"
    style="enable-background:new 0 0 28 29;" xml:space="preserve">
<path d="M14,28.6c-3.7,0-7.3-1.5-9.9-4.1C1.5,21.9,0,18.3,0,14.6c0-3.7,1.5-7.3,4.1-9.9c2.6-2.6,6.2-4.1,9.9-4.1
	c3.7,0,7.3,1.5,9.9,4.1c2.6,2.6,4.1,6.2,4.1,9.9c0,3.7-1.5,7.3-4.1,9.9C21.3,27.1,17.7,28.6,14,28.6z M14,1.9c-3.4,0-6.6,1.3-9,3.7
	s-3.7,5.6-3.7,9s1.3,6.6,3.7,9s5.6,3.7,9,3.7s6.6-1.3,9-3.7s3.7-5.6,3.7-9S25.4,8,23,5.6S17.4,1.9,14,1.9z M8.3,10.5
	c1,0,1.7-0.8,1.7-1.7S9.2,7.1,8.3,7.1S6.5,7.8,6.5,8.8S7.3,10.5,8.3,10.5z M12.3,6.2c-0.2,0-0.3-0.1-0.5-0.2
	c-1.5-1.4-3.4-0.7-3.5-0.6C8,5.5,7.6,5.4,7.4,5c-0.1-0.4,0-0.8,0.4-0.9c0.1,0,2.8-1.1,5,0.9c0.3,0.3,0.3,0.7,0.1,1
	C12.7,6.1,12.5,6.2,12.3,6.2L12.3,6.2z M21.2,7.3c-0.2,0-0.3-0.1-0.4-0.2c-0.9-0.7-2.9-0.2-3.6,0c-0.4,0.1-0.8-0.1-0.9-0.4
	c-0.1-0.4,0.1-0.8,0.4-0.9c0.3-0.1,3.3-1.1,5,0.2c0.3,0.2,0.3,0.7,0.1,1C21.6,7.2,21.4,7.3,21.2,7.3L21.2,7.3z M16.9,18
	c-0.1,0-0.2,0-0.3-0.1c0,0-1.8-0.8-3.3-0.9c-2.5-0.1-3.2,0.2-3.2,0.2c0,0,0,0,0,0l-0.6-1.3c0.2-0.1,1.1-0.4,3.8-0.3
	c1.7,0.1,3.7,0.9,3.8,1c0.4,0.2,0.5,0.6,0.4,0.9C17.5,17.8,17.2,18,16.9,18L16.9,18z"/>
<path d="M6.4,25.9L6.4,25.9c-0.3,0-0.7-0.2-1.2-0.7l-0.1-0.1l-0.7-4.6l0.2-0.1c0.3-0.2,0.7-0.7,0.8-1.1c0.1-0.5,0.1-2.2,0.1-2.4
	c0-0.1,0-0.3,0.1-0.4c0.1-0.2,0.4-0.2,0.8-0.1c0.5,0.1,0.9,0.4,1,0.8c0.1,0.3,0.1,0.8,0.1,1.3l0,0.4l0.8-0.1l2-0.2
	c0.4,0,1-0.1,1.6-0.2c1.6-0.3,2.6-0.4,3.1,0l0,0c0.3,0.3,0.4,0.7,0.3,1c-0.1,0.3-0.4,0.8-1.2,0.9c-0.6,0.1-1.3,0.2-1.9,0.2l-0.5,0
	c0.1,0.2,0.2,0.4,0.2,0.6c0,0.3-0.1,0.6-0.2,0.8l0,0.1c0,0,0,0,0,0c0.1,0.1,0.2,0.2,0.2,0.4c0,0.3-0.1,0.5-0.2,0.7
	c0,0.1-0.1,0.2-0.1,0.2l0.1,0.1c0.1,0.1,0.2,0.3,0.2,0.5c0,0.6-0.3,1-0.6,1.1S7.2,25.9,6.4,25.9L6.4,25.9z M6.4,25.1
	c0.7,0,3.8-0.6,4.3-0.7c0.1-0.1,0.1-0.2,0.1-0.3c0,0,0,0,0-0.1c-0.1-0.1-0.2-0.3-0.2-0.5c0-0.2,0.1-0.4,0.2-0.6
	c0.1-0.1,0.1-0.2,0.1-0.3l0,0c-0.1-0.1-0.2-0.4-0.1-0.6l0.1-0.2c0.1-0.2,0.1-0.3,0.1-0.5c0-0.1-0.1-0.2-0.2-0.3
	c-0.1-0.2-0.3-0.3-0.3-0.6c0-0.1,0-0.2,0.1-0.3c0.2-0.2,0.4-0.2,1.4-0.3l1.8-0.2c0.3-0.1,0.6-0.2,0.6-0.4c0-0.1,0-0.2,0-0.2
	c0,0-0.2-0.1-0.8,0c-0.5,0-1.1,0.1-1.6,0.2l-1.7,0.2h0l-1.9,0.2l-1.2,0.1c-0.3-0.1-0.4-0.4-0.4-0.6l0-0.6l-0.1-1.1
	c0-0.1-0.2-0.2-0.3-0.2l0,0.7l-0.1,1.6C6,20,5.5,20.6,5.2,20.8l0.6,3.9C6.1,24.9,6.3,25.1,6.4,25.1L6.4,25.1z M5.5,16.9
	C5.5,16.9,5.5,17,5.5,16.9C5.5,17,5.5,16.9,5.5,16.9z M10.3,15c-1.3,0-2.5-0.5-3.6-1.6c-1.2-1.2-1.5-2.6-1.1-4.3c0.3-1.2,1-2,1-2.1
	l0.1-0.1l0.2,0c1.3-0.4,3.3-0.2,4.3,0c0.4,0.1,2.7,0.5,3.1,1c0.5,0.6,0.6,1.9,0.6,2.2v0v0c0,2.2-0.8,3.1-1.5,3.7
	C13.1,14.2,11.9,14.9,10.3,15C10.4,15,10.4,15,10.3,15z M7.4,7.8c-0.3,0.5-0.6,1-0.7,1.6c-0.3,1.3,0,2.3,0.8,3.2
	c0.8,0.8,1.8,1.3,2.8,1.3c1.2,0,2.2-0.6,2.4-0.8c0.6-0.6,1.1-1.2,1.2-3c0-0.6-0.2-1.3-0.4-1.5c-0.2-0.1-1.2-0.5-2.7-0.7
	C9.5,7.6,8.2,7.6,7.4,7.8L7.4,7.8z M18,11.7c1,0,1.7-0.8,1.7-1.7c0-1-0.8-1.7-1.7-1.7c-1,0-1.7,0.8-1.7,1.7S17,11.7,18,11.7z"/>
<path d="M20.1,16.1c-1.3,0-2.5-0.5-3.6-1.6c-1.2-1.2-1.5-2.6-1.1-4.3c0.3-1.2,1-2,1-2.1L16.5,8l0.2,0c1.3-0.4,3.3-0.2,4.3,0
	c0.4,0.1,2.7,0.5,3.1,1c0.5,0.6,0.6,1.9,0.6,2.2v0v0c0,2.2-0.8,3.1-1.5,3.7C22.8,15.4,21.6,16.1,20.1,16.1
	C20.1,16.1,20.1,16.1,20.1,16.1L20.1,16.1z M17.1,8.9c-0.2,0.3-0.5,0.9-0.7,1.6c-0.3,1.3,0,2.3,0.9,3.2c0.8,0.8,1.8,1.3,2.8,1.3
	c1.2,0,2.2-0.6,2.4-0.8c0.6-0.6,1.1-1.2,1.2-3c0-0.6-0.2-1.3-0.4-1.5c-0.2-0.1-1.2-0.5-2.7-0.7C19.2,8.8,17.9,8.7,17.1,8.9L17.1,8.9
	z"/>
</svg>