<svg version="1.0" id="Layer_1" xmlns:v="https://vecta.io/nano"
    xmlns="http://www.w3.org/2000/svg" xmlns:xlink="http://www.w3.org/1999/xlink" x="0px" y="0px"
    viewBox="0 0 64 49"
    style="enable-background:new 0 0 64 49;" xml:space="preserve">
<path d="M50,0h-9.8v9.8H50V0z M23.8,0H14v49h9.8V0z M36.9,13.1V49h-9.8V22.9L36.9,13.1z M10.8,13.1V49H1V22.9L10.8,13.1z M63,0h-9.8
	v9.8H63V0z M50,13.1h-9.8v14.7v8.2h13.1v3.3H40.2V49h13.1h1.6H63V35.9v-1.6V21.2v-8.2L50,13.1L50,13.1z M53.2,27.8H50v-6.5h3.3
	C53.2,21.2,53.2,27.8,53.2,27.8z"/>
</svg>